<?xml version="1.0" standalone="no"?>
<!DOCTYPE svg PUBLIC "-//W3C//DTD SVG 20010904//EN"
 "http://www.w3.org/TR/2001/REC-SVG-20010904/DTD/svg10.dtd">
<svg version="1.0" xmlns="http://www.w3.org/2000/svg"
 width="500.000000pt" height="500.000000pt" viewBox="0 0 500.000000 500.000000"
 preserveAspectRatio="xMidYMid meet">
<metadata>
Created by potrace 1.14, written by Peter Selinger 2001-2017
</metadata>
<g transform="translate(0.000000,500.000000) scale(0.100000,-0.100000)"
fill="#000000" stroke="none">
<path d="M1150 4793 c-70 -7 -133 -24 -206 -54 -60 -25 -72 -34 -63 -45 9 -11
5 -11 -21 -4 -44 13 -110 -15 -110 -46 0 -12 -20 -48 -45 -80 -25 -31 -45 -64
-45 -72 0 -11 -3 -12 -14 -3 -11 9 -16 -2 -31 -56 -47 -180 -44 -247 15 -366
34 -68 144 -207 170 -215 8 -2 -1 13 -21 34 -59 64 -116 146 -146 209 -24 53
-28 72 -28 162 0 125 8 138 61 98 35 -27 36 -29 30 -79 -13 -100 -9 -230 6
-266 9 -19 42 -64 74 -99 33 -35 65 -76 72 -90 l12 -26 -5 30 c-3 17 -9 77
-12 134 -6 101 -5 104 18 122 19 14 24 27 24 72 1 44 7 64 31 98 95 137 260
156 393 43 41 -34 57 -66 70 -140 15 -79 -1 -133 -63 -215 -51 -68 -56 -94
-25 -134 l22 -27 -26 -21 c-57 -49 -71 -134 -32 -190 8 -12 15 -32 15 -46 0
-24 1 -24 69 -17 79 7 94 13 178 79 34 26 68 47 77 47 8 0 18 5 22 11 3 6 25
20 48 30 49 23 62 31 141 87 33 23 77 53 97 67 20 13 48 40 63 59 25 33 64 60
49 33 -44 -73 -213 -212 -317 -259 -20 -9 -40 -24 -43 -32 -3 -8 -17 -17 -32
-21 -32 -8 -99 -48 -172 -103 -41 -31 -57 -38 -67 -30 -8 6 -38 8 -80 4 -38
-3 -76 -6 -86 -7 -10 0 -20 -6 -23 -14 -8 -20 26 -74 50 -77 25 -4 52 -74 42
-113 -7 -27 -7 -27 -27 -9 -12 11 -48 59 -81 109 -68 102 -68 102 -68 88 0 -5
25 -47 55 -93 30 -46 55 -90 55 -97 0 -7 5 -13 10 -13 6 0 10 -7 10 -16 0 -14
-3 -14 -15 -4 -13 11 -15 6 -15 -35 0 -33 -4 -45 -12 -43 -20 7 -64 93 -104
205 -33 93 -35 107 -26 145 17 64 6 58 -14 -7 -14 -52 -15 -66 -3 -134 26
-142 17 -231 -34 -359 l-21 -52 94 -89 93 -88 -5 -174 c-8 -239 13 -309 92
-309 26 0 29 -4 35 -50 4 -28 18 -72 31 -98 28 -55 29 -68 8 -76 -14 -5 -13
-9 7 -25 13 -10 28 -17 35 -14 16 6 44 -41 34 -57 -12 -19 -32 -1 -24 22 4 15
2 19 -7 16 -22 -7 -23 -45 -1 -57 16 -8 25 -7 41 7 18 14 24 34 32 111 11 116
23 162 57 224 24 46 92 117 111 117 15 0 -4 -72 -36 -135 -33 -66 -68 -163
-108 -299 -39 -130 -82 -165 -129 -103 -17 23 -21 43 -21 98 0 67 -7 85 -19
53 -29 -76 46 -224 114 -224 28 0 40 -15 40 -50 0 -10 12 -28 27 -40 27 -21
27 -22 9 -36 -29 -20 -34 -18 -39 19 -3 22 -4 15 -5 -20 -2 -63 5 -65 68 -17
46 34 90 58 97 51 13 -14 -137 -117 -171 -117 -17 0 -38 -63 -29 -86 4 -10 9
-9 23 9 18 22 19 22 25 2 24 -70 66 -135 136 -211 43 -48 79 -95 79 -106 0
-10 7 -18 15 -18 8 0 19 -15 24 -32 l9 -33 1 36 c1 41 -15 64 -116 165 -90 89
-147 196 -120 223 20 20 27 11 27 -35 0 -57 24 -99 68 -120 40 -19 81 -12 111
20 24 26 41 96 22 96 -6 0 -11 -5 -11 -11 0 -8 -4 -8 -14 1 -13 10 -15 7 -13
-16 1 -20 -3 -29 -16 -32 -30 -6 -49 18 -43 53 6 31 75 169 81 163 2 -2 13
-51 25 -108 27 -133 67 -250 141 -415 33 -72 59 -134 59 -138 0 -9 -58 -3 -68
8 -4 5 0 5 8 0 8 -5 5 3 -6 16 -28 31 -54 83 -54 106 0 39 -103 223 -117 209
-3 -3 8 -27 25 -53 61 -95 73 -148 52 -225 -19 -67 -73 -74 -108 -15 -28 47
-35 98 -18 146 15 44 2 58 -14 15 -15 -39 -12 -112 6 -150 28 -59 79 -80 124
-52 27 17 29 10 17 -49 -9 -43 -8 -55 6 -77 10 -14 23 -26 31 -26 14 0 14 -81
0 -130 -7 -23 -6 -24 9 -11 15 12 20 11 37 -4 18 -17 32 -17 73 0 15 6 17 1
17 -34 0 -23 6 -56 14 -74 16 -38 113 -143 123 -133 4 3 -2 13 -13 21 -15 11
-16 14 -4 15 9 0 16 10 18 23 1 13 8 36 15 51 13 24 16 25 28 10 11 -14 10
-18 -9 -33 -18 -13 -22 -24 -19 -54 2 -20 7 -40 12 -44 4 -5 5 -2 1 4 -4 7 -2
13 3 13 16 0 13 -26 -4 -40 -23 -19 -19 -73 7 -97 33 -30 63 -43 95 -42 23 1
20 3 -14 11 -66 14 -114 83 -81 116 18 18 49 15 42 -3 -4 -8 -1 -15 5 -15 28
0 22 32 -13 66 -23 22 -35 42 -32 51 3 8 6 17 6 19 0 10 37 2 54 -11 24 -18
60 -19 86 -3 15 9 23 10 28 2 4 -6 16 -14 27 -18 19 -7 18 -9 -12 -34 -62 -52
-66 -120 -10 -172 55 -51 117 -49 117 5 0 14 11 30 27 40 24 16 30 16 52 4 14
-8 32 -28 40 -44 25 -53 50 -58 105 -20 31 21 40 23 57 12 11 -7 18 -19 15
-29 -3 -15 -1 -16 15 -7 10 5 19 14 19 19 0 6 8 10 18 10 24 0 73 34 88 62 18
31 17 53 -2 73 -12 11 -13 19 -5 29 6 7 8 16 4 19 -3 4 0 13 7 22 10 12 9 20
-4 40 -9 14 -21 25 -26 25 -11 0 15 69 32 85 7 7 7 2 -1 -12 -16 -31 -14 -47
11 -79 28 -35 31 -54 11 -76 -14 -16 -13 -16 16 -5 20 7 34 21 38 37 7 26 40
59 60 60 7 0 25 -16 40 -36 15 -20 36 -46 46 -57 18 -22 18 -22 3 8 -8 17 -25
54 -37 83 -12 29 -24 50 -27 47 -3 -3 -12 5 -20 17 -12 16 -12 23 -4 26 7 2
12 17 12 33 0 33 6 36 31 13 45 -40 106 26 97 103 -3 27 0 37 16 45 12 6 24
16 28 22 11 16 10 81 -2 112 -13 34 -7 40 22 20 34 -24 71 -20 100 11 47 50
58 152 23 209 -12 19 -8 27 51 89 38 41 77 95 96 134 30 62 32 75 37 206 l6
139 33 7 c65 13 111 86 112 176 0 41 -5 58 -25 81 l-25 30 25 49 c18 34 30 80
38 149 l13 99 42 0 c61 0 77 20 74 97 -2 52 2 71 27 117 30 59 91 240 91 273
0 11 10 28 23 38 21 17 22 26 22 138 0 86 -3 118 -11 111 -6 -5 -14 -6 -17 -2
-4 3 -7 0 -8 -8 0 -8 -4 -6 -9 6 -13 30 -11 132 4 204 12 56 11 73 -2 128 -9
35 -19 58 -23 52 -4 -6 -1 -27 7 -45 8 -18 14 -44 14 -58 0 -30 -53 -175 -83
-229 l-22 -39 -32 38 c-18 20 -33 45 -33 54 0 10 15 37 33 61 38 50 61 89 55
95 -3 2 -27 -28 -54 -68 -67 -98 -75 -102 -120 -55 -23 24 -31 37 -21 37 8 0
17 -7 21 -15 3 -8 9 -15 14 -15 13 0 32 70 33 121 1 29 9 52 22 66 21 24 17
44 -5 25 -7 -5 -32 -16 -55 -23 -24 -6 -50 -20 -59 -31 -10 -10 -26 -18 -36
-18 -18 0 -66 -23 -118 -56 -14 -9 -7 0 15 20 42 38 182 116 209 116 20 0 56
82 56 127 0 38 -12 67 -43 101 -19 20 -20 25 -7 45 45 70 60 126 26 98 -9 -8
-17 -1 -29 24 -9 20 -28 41 -42 47 -14 6 -25 17 -25 23 0 7 -9 33 -20 58 -19
44 -20 50 -5 118 8 39 22 83 30 96 16 23 100 83 118 83 12 0 76 -70 92 -100 7
-14 16 -47 20 -73 4 -26 11 -44 16 -41 11 6 12 68 2 78 -5 4 -8 11 -9 14 -3
39 -31 95 -50 103 -13 4 -30 20 -40 34 -9 14 -22 25 -29 25 -7 0 -19 7 -26 16
-12 15 -11 16 11 9 14 -4 31 -14 38 -24 10 -12 30 -16 80 -16 78 -1 127 -22
184 -82 91 -94 123 -245 93 -433 -11 -70 16 11 30 90 12 69 43 192 65 265 7
22 8 8 4 -48 -4 -69 -29 -189 -50 -241 -5 -13 -4 -17 4 -12 6 4 23 44 38 89
23 69 27 101 28 197 1 111 0 118 -32 182 -35 71 -106 144 -174 179 -105 54
-248 62 -358 20 -30 -12 -58 -21 -62 -21 -15 0 -80 102 -75 119 2 10 0 26 -5
35 -7 13 -1 20 36 35 99 43 254 52 361 20 l39 -11 -24 -14 c-24 -13 -22 -14
30 -12 68 3 136 -31 224 -112 143 -132 200 -309 152 -472 -14 -47 -72 -145
-137 -233 l-23 -30 33 30 c50 46 121 160 143 228 31 97 21 212 -25 308 -80
166 -230 286 -417 334 -98 26 -262 17 -355 -19 -38 -15 -78 -37 -87 -49 -14
-18 -19 -20 -29 -9 -21 20 -96 15 -116 -8 -10 -11 -25 -20 -35 -20 -16 0 -22
-13 -21 -47 1 -7 -3 -13 -8 -13 -5 0 -15 -15 -23 -33 -17 -43 -107 -123 -171
-152 -27 -13 -43 -25 -35 -26 19 -2 27 -3 72 -13 20 -4 44 -17 54 -27 23 -26
31 -24 42 9 l10 27 1 -25 c0 -14 -4 -32 -9 -40 -8 -13 -13 -13 -31 -2 -87 54
-257 82 -283 47 -15 -21 -126 -43 -289 -57 -223 -19 -481 13 -685 86 -24 8
-40 11 -37 6 9 -14 3 -13 -68 11 -50 17 -87 22 -189 23 -71 0 -128 4 -128 9 0
4 15 7 34 7 19 0 57 5 85 12 37 8 57 8 73 1 33 -16 68 -23 68 -13 0 17 -76 34
-140 31 l-65 -2 -62 65 c-51 54 -68 66 -94 66 -17 0 -57 6 -88 14 -31 8 -80
17 -108 21 -29 4 -53 11 -53 16 0 5 19 22 43 38 23 16 50 37 61 47 17 15 22
16 78 0 113 -31 272 -131 403 -251 54 -49 75 -64 75 -50 0 2 -43 41 -96 85
-163 137 -253 191 -383 230 -70 22 -75 22 -109 6 -27 -13 -33 -14 -24 -3 14
16 6 28 -17 25 -9 0 -32 -3 -51 -5z m-1 -38 c-26 -13 -62 -43 -80 -65 -20 -24
-60 -55 -94 -72 -89 -45 -141 -85 -186 -145 -23 -29 -45 -53 -50 -53 -16 0
-32 47 -25 73 3 14 31 55 62 90 51 59 59 65 81 56 38 -14 66 5 58 42 -6 27 -3
31 32 46 61 26 165 52 208 52 l40 0 -46 -24z m40 -11 c-7 -9 -32 -29 -56 -46
-30 -20 -46 -39 -50 -59 -3 -16 -9 -29 -14 -29 -17 0 -9 32 15 61 13 15 26 32
28 37 1 5 21 18 43 29 51 26 50 26 34 7z m2196 -89 c-16 -13 -32 -22 -35 -19
-7 7 39 44 54 44 6 -1 -2 -12 -19 -25z m125 3 c0 -5 14 -22 31 -38 18 -16 28
-33 24 -40 -8 -14 -33 4 -46 35 -5 11 -16 30 -25 43 -15 21 -15 22 0 16 9 -3
16 -10 16 -16z m-50 -45 c13 -27 37 -60 52 -74 15 -14 28 -30 28 -35 0 -8 -50
-67 -107 -126 -15 -17 -18 -17 -35 -1 -23 20 -26 -2 -3 -27 13 -14 12 -22 -2
-68 -15 -46 -33 -69 -33 -42 0 5 -15 27 -34 48 -32 35 -33 39 -21 67 7 17 39
59 71 94 33 35 65 72 71 82 29 40 -32 4 -98 -59 -38 -35 -69 -61 -69 -56 0 4
12 44 26 88 23 70 33 86 73 119 25 20 48 37 51 37 3 0 16 -21 30 -47z m-2065
-28 c29 -2 65 -15 65 -23 0 -4 11 -20 25 -36 25 -29 31 -46 17 -46 -4 0 -32
19 -62 41 -30 23 -73 50 -95 61 l-40 19 35 -7 c19 -4 44 -8 55 -9z m1871 -72
c-10 -10 -19 5 -10 18 6 11 8 11 12 0 2 -7 1 -15 -2 -18z m339 16 c11 -17 -1
-21 -15 -4 -8 9 -8 15 -2 15 6 0 14 -5 17 -11z m180 -8 c-22 -10 -51 -30 -64
-45 -31 -33 -43 -33 -78 0 l-28 26 27 -16 c37 -21 42 -21 80 13 32 27 56 38
88 39 8 0 -3 -8 -25 -17z m-573 -73 c-2 -24 -8 -47 -12 -52 -10 -10 -80 1 -80
13 0 6 87 81 94 81 1 0 0 -19 -2 -42z m-2496 -39 c16 -17 55 -51 87 -75 47
-35 54 -44 37 -44 -13 0 -43 19 -69 43 -25 23 -57 51 -71 62 -34 26 -45 45
-27 45 7 0 26 -14 43 -31z m874 -3 c0 -2 -12 -11 -27 -20 l-28 -17 24 20 c23
21 31 25 31 17z m225 -22 c17 -4 40 -15 53 -25 15 -11 34 -16 50 -13 15 2 35
-2 44 -9 40 -31 72 -208 52 -282 -6 -24 -92 -81 -189 -127 -63 -29 -79 -32
-162 -33 -50 0 -94 3 -98 7 -4 3 -4 16 0 27 9 30 49 27 63 -4 6 -14 18 -25 26
-25 15 0 39 24 30 32 -3 3 17 9 43 12 142 19 137 16 189 110 23 42 29 133 12
176 -15 34 -15 33 -10 -42 3 -54 1 -78 -6 -78 -7 0 -21 -18 -32 -40 -38 -75
-83 -98 -122 -63 -26 23 -23 35 22 81 29 29 40 49 40 71 0 44 -33 109 -86 171
-34 40 -42 55 -32 62 13 9 58 6 113 -8z m-80 -93 c-7 -6 -64 49 -77 74 -6 11
10 0 36 -24 25 -25 43 -47 41 -50z m240 79 c3 -5 2 -10 -4 -10 -5 0 -13 5 -16
10 -3 6 -2 10 4 10 5 0 13 -4 16 -10z m68 -35 c9 -19 12 -35 7 -35 -6 0 -10 6
-10 14 0 7 -7 19 -15 26 -16 13 -20 30 -7 30 5 0 16 -16 25 -35z m-399 -34
c37 -51 66 -109 66 -135 0 -14 -65 -66 -82 -66 -5 0 -8 36 -8 80 0 49 -6 95
-15 117 -30 71 -11 73 39 4z m1220 -31 c-38 -39 -70 -77 -72 -85 -4 -16 -32
-27 -77 -30 -16 -1 -41 -6 -55 -10 -14 -4 11 11 55 33 57 29 99 60 144 107 35
36 66 63 69 61 3 -3 -26 -37 -64 -76z m-712 55 c118 -27 329 -38 477 -26 75 7
154 16 176 21 22 5 41 7 43 5 11 -11 -79 -88 -137 -117 -64 -32 -78 -42 -81
-63 -2 -15 -44 -35 -51 -24 -9 16 -159 -43 -159 -62 0 -17 34 -15 111 7 46 13
87 24 92 24 17 0 4 -19 -33 -49 -34 -27 -52 -33 -119 -41 -134 -15 -195 -55
-257 -166 -46 -82 -66 -94 -98 -59 -13 14 -27 25 -32 25 -5 1 -20 10 -33 21
l-24 20 23 24 c13 14 29 25 35 25 7 0 20 8 29 19 16 17 16 19 -5 24 -17 5 -20
10 -14 29 4 13 10 41 13 63 6 35 13 43 51 62 24 12 78 30 120 40 51 12 67 19
50 21 -24 3 -131 -18 -170 -33 -13 -5 -17 3 -22 37 -3 24 -8 52 -10 63 -3 14
2 22 17 26 20 5 19 6 -8 20 -17 8 -36 29 -43 47 -7 17 -11 32 -9 32 3 0 33 -7
68 -15z m934 0 c46 -7 124 -56 140 -88 9 -17 20 -34 23 -37 4 -3 19 -26 33
-52 23 -41 25 -55 21 -108 -6 -59 -6 -60 -37 -60 -62 1 -154 85 -172 157 -4
13 -10 23 -14 23 -15 0 -20 35 -11 68 6 18 6 30 1 27 -4 -3 -13 -27 -20 -54
-28 -119 54 -233 185 -256 52 -10 75 -22 75 -40 0 -22 -40 -19 -116 10 -74 28
-97 41 -231 127 -67 44 -96 69 -108 95 l-17 36 39 37 c22 20 42 41 44 46 2 6
26 27 54 48 35 26 55 35 70 31 11 -4 29 -8 41 -10z m198 -41 c37 -32 49 -51
37 -58 -5 -3 -25 14 -46 39 -41 51 -38 58 9 19z m-1520 -30 c10 -25 -1 -29
-14 -5 -6 12 -7 21 -1 21 5 0 12 -7 15 -16z m-909 -13 c3 -5 1 -12 -5 -16 -5
-3 -10 1 -10 9 0 18 6 21 15 7z m1227 -63 c-9 -9 -12 -7 -12 12 0 19 3 21 12
12 9 -9 9 -15 0 -24z m1268 -19 c0 -5 -4 -9 -10 -9 -5 0 -10 7 -10 16 0 8 5
12 10 9 6 -3 10 -10 10 -16z m-1595 -33 c-9 -13 -48 -40 -88 -60 -59 -29 -83
-36 -127 -35 -43 1 -49 3 -30 9 14 4 41 9 60 10 22 1 65 20 115 50 44 26 81
48 83 49 1 1 -5 -10 -13 -23z m1693 -30 c3 -16 0 -18 -24 -12 -35 9 -38 12
-29 26 11 17 49 7 53 -14z m-728 5 c0 -14 -40 -54 -75 -77 -16 -10 -74 -50
-128 -87 -54 -38 -101 -67 -103 -64 -8 7 99 99 131 113 17 7 42 23 56 36 14
12 42 34 62 48 20 14 37 28 37 33 0 4 5 7 10 7 6 0 10 -4 10 -9z m259 -101
c118 -72 235 -124 300 -134 39 -6 70 -27 71 -47 0 -6 -180 -89 -193 -89 -4 0
-18 25 -32 55 -15 30 -32 55 -38 55 -7 0 -8 3 -1 10 12 12 -105 140 -128 140
-9 0 -23 10 -31 23 -14 18 -18 20 -26 7 -10 -14 -12 -13 -68 59 -23 29 -13 35
15 9 15 -14 74 -54 131 -88z m368 48 c-3 -8 -6 -5 -6 6 -1 11 2 17 5 13 3 -3
4 -12 1 -19z m-536 -24 c18 -30 19 -38 8 -45 -11 -8 -9 -14 13 -32 60 -50 65
-122 14 -195 -67 -93 -109 -149 -133 -174 -36 -38 -20 -49 17 -13 33 31 34 29
30 -42 -1 -24 3 -43 8 -43 21 0 4 -35 -30 -63 -35 -28 -55 -32 -145 -28 -28 1
-53 46 -53 94 0 31 5 38 57 68 89 54 103 71 103 126 0 51 -25 105 -63 135 -36
29 -41 20 -8 -14 30 -31 51 -81 51 -123 0 -17 -2 -18 -10 -5 -9 13 -12 13 -20
-2 -39 -66 -114 -117 -170 -118 -85 0 -170 61 -170 122 0 29 9 44 50 84 27 27
50 55 50 62 0 6 11 12 25 12 14 0 57 21 95 47 78 51 85 51 146 -6 33 -31 85
-61 107 -61 21 0 57 38 57 60 0 28 -15 25 -28 -5 -17 -38 -41 -30 -111 34
l-64 59 29 15 c16 8 45 31 63 51 19 20 40 36 47 36 7 0 22 -16 35 -36z m-813
-49 c-21 -20 -38 -38 -38 -41 0 -18 -44 -64 -61 -64 -10 0 -19 -7 -19 -15 0
-8 -3 -15 -8 -15 -4 0 -25 -16 -47 -35 -22 -19 -48 -37 -57 -41 -10 -3 -63 15
-123 42 -82 36 -105 51 -105 66 0 15 5 18 17 14 51 -20 105 -25 160 -15 69 13
176 58 247 104 66 44 81 44 34 0z m-268 10 c10 -13 9 -15 -9 -15 -12 0 -21 6
-21 15 0 8 4 15 9 15 5 0 14 -7 21 -15z m1283 -78 c21 -27 31 -57 20 -57 -4 0
-23 17 -44 38 -21 20 -50 47 -64 59 -14 12 -25 29 -25 38 0 20 83 -36 113 -78z
m347 89 c0 -3 -4 -8 -10 -11 -5 -3 -10 -1 -10 4 0 6 5 11 10 11 6 0 10 -2 10
-4z m-1310 -14 c0 -5 -6 -16 -13 -27 -10 -13 -16 -15 -21 -6 -4 6 -2 18 4 26
13 16 30 20 30 7z m390 -31 c0 -5 -13 -19 -29 -32 -16 -13 -28 -26 -25 -30 2
-4 -3 -9 -11 -13 -8 -3 -15 -13 -15 -22 0 -10 5 -14 15 -10 8 3 15 2 15 -3 0
-12 -36 -42 -46 -39 -26 7 -124 -104 -124 -141 0 -6 -3 -11 -7 -11 -9 0 -67
70 -61 73 35 19 48 31 75 73 52 82 99 128 145 146 50 19 68 22 68 9z m-959
-102 c29 -6 82 -25 118 -41 36 -17 86 -39 111 -50 39 -18 42 -21 25 -28 -46
-19 -230 2 -239 27 -3 7 -1 13 5 13 6 0 9 10 7 23 -3 19 -10 22 -51 25 -29 2
-60 -3 -79 -12 -35 -18 -47 -13 -32 12 9 13 42 31 81 41 1 1 26 -4 54 -10z
m2114 -19 c31 -12 32 -22 1 -36 -17 -8 -28 -8 -35 -1 -7 7 -12 5 -17 -6 -6
-18 -64 -25 -64 -8 0 5 -9 11 -21 14 -17 5 -19 9 -10 25 8 15 22 20 65 21 30
0 66 -3 81 -9z m-655 -14 c0 -8 -4 -18 -10 -21 -5 -3 -10 3 -10 14 0 12 5 21
10 21 6 0 10 -6 10 -14z m134 -8 c18 -26 20 -38 6 -38 -5 0 -16 14 -25 30 -18
35 -4 41 19 8z m579 -17 c-71 -64 -154 -78 -194 -34 -15 18 -17 22 -4 11 11
-9 31 -19 46 -23 34 -8 134 30 157 60 9 14 22 24 27 24 6 0 -9 -17 -32 -38z
m-1546 -58 c88 -102 176 -194 181 -189 2 3 -8 20 -22 38 -24 32 -24 35 -9 51
16 15 18 14 37 -20 24 -42 90 -92 122 -93 12 0 25 -7 28 -16 9 -25 7 -64 -4
-64 -5 0 -10 -6 -10 -13 0 -21 -56 -57 -88 -57 -40 0 -131 68 -177 132 -21 29
-52 84 -70 123 -61 132 -56 125 -49 80 3 -22 17 -66 30 -97 13 -32 24 -61 24
-65 0 -4 -21 13 -46 37 -84 82 -41 24 68 -89 89 -94 102 -111 82 -111 -17 0
-405 188 -422 204 -1 2 3 17 9 34 9 25 17 32 37 32 25 1 26 2 9 14 -17 13 -15
15 22 21 23 4 41 10 41 15 0 4 25 33 56 64 66 66 67 66 151 -31z m-667 73 c0
-2 -7 -7 -16 -10 -8 -3 -12 -2 -9 4 6 10 25 14 25 6z m55 -16 c3 -5 -1 -10
-10 -10 -9 0 -13 5 -10 10 3 6 8 10 10 10 2 0 7 -4 10 -10z m1889 4 c9 -3 16
-12 16 -19 0 -8 11 -27 25 -43 14 -17 25 -32 25 -35 0 -3 -24 -13 -52 -23 -29
-9 -91 -34 -137 -55 -46 -21 -87 -36 -92 -33 -5 3 -9 20 -9 39 0 18 -5 35 -11
37 -31 10 17 48 113 91 57 25 104 46 105 46 1 1 8 -2 17 -5z m-1939 -14 c4 -6
-9 -10 -32 -9 -34 1 -35 2 -13 9 35 11 38 11 45 0z m1570 -20 c10 -32 -53
-137 -129 -215 -42 -43 -70 -65 -73 -57 -7 19 62 152 102 196 19 21 43 52 52
67 20 34 39 37 48 9z m-1687 -26 c0 -14 -4 -21 -8 -15 -3 7 -14 9 -23 5 -21
-8 -21 -10 3 -34 11 -11 17 -26 14 -35 -5 -13 -8 -13 -21 1 -9 8 -22 13 -31 9
-12 -4 -12 -2 -4 8 7 8 9 17 6 20 -9 9 35 67 50 67 8 0 14 -11 14 -26z m1572
7 c0 -5 -11 -19 -26 -30 -14 -11 -24 -23 -24 -28 3 -15 -35 -63 -49 -63 -13 0
-5 13 63 102 22 28 36 35 36 19z m213 -27 c3 -3 3 -13 0 -21 -5 -12 -7 -12
-14 -1 -15 23 -4 40 14 22z m-1510 -21 c47 -13 2 -33 -75 -33 -40 0 -48 3 -48
18 0 10 3 22 7 26 7 6 77 0 116 -11z m1452 -55 c22 -13 17 -85 -8 -112 -25
-27 -84 -50 -92 -35 -11 17 -26 9 -20 -10 4 -14 0 -21 -16 -26 -12 -4 -48 -22
-80 -41 -70 -41 -97 -45 -43 -5 71 52 163 162 210 251 l29 55 3 -35 c2 -19 9
-38 17 -42z m-1765 8 c0 -2 -7 -9 -15 -16 -13 -11 -14 -10 -9 4 5 14 24 23 24
12z m270 -12 c0 -3 -21 -14 -47 -25 -27 -12 -74 -34 -106 -50 -65 -32 -82 -35
-93 -16 -4 6 -4 9 0 6 3 -3 22 9 41 27 19 17 54 39 77 47 42 15 128 23 128 11z
m1570 -49 c10 -12 10 -15 -4 -15 -9 0 -16 7 -16 15 0 8 2 15 4 15 2 0 9 -7 16
-15z m424 -25 c52 -25 61 -50 19 -50 -47 0 -255 -17 -300 -25 -36 -6 -43 -4
-55 14 -7 11 -20 21 -29 21 -9 0 -23 8 -30 18 -13 15 -12 16 2 4 14 -10 23 -9
53 9 82 48 250 53 340 9z m-1926 -40 c-14 -22 -24 -19 -15 5 4 8 11 15 17 15
6 0 6 -7 -2 -20z m894 -72 c-3 -52 -8 -77 -20 -85 -31 -25 -37 -14 -37 67 -1
82 1 85 45 89 13 1 15 -11 12 -71z m554 44 c-18 -16 -18 -16 -6 6 6 13 14 21
18 18 3 -4 -2 -14 -12 -24z m72 -12 c15 -24 8 -40 -17 -40 -26 0 -31 9 -19 36
14 29 20 30 36 4z m-1138 -60 c19 -5 39 -9 44 -9 5 0 12 -5 16 -11 4 -6 18
-13 31 -15 13 -1 44 -7 69 -13 210 -50 218 -50 258 5 l20 28 -6 -34 c-8 -39
-37 -53 -133 -66 -29 -4 -61 -12 -69 -19 -9 -7 -30 -9 -55 -5 -22 3 -31 7 -21
8 21 1 17 11 -6 14 -7 2 -24 11 -38 21 l-25 18 45 -6 45 -6 -34 16 c-19 9 -91
31 -160 50 -69 19 -130 36 -136 39 -16 8 116 -5 155 -15z m-649 -17 c-8 -15
-10 -15 -11 -2 0 17 10 32 18 25 2 -3 -1 -13 -7 -23z m209 2 c0 -8 -7 -15 -15
-15 -26 0 -18 20 13 29 1 1 2 -6 2 -14z m309 -2 c28 -9 51 -20 51 -26 0 -5 -7
-7 -14 -4 -11 4 -13 1 -9 -10 4 -11 -1 -9 -16 6 -14 14 -29 20 -39 16 -9 -3
-13 -3 -9 1 4 4 -5 13 -20 20 -42 18 -4 17 56 -3z m1331 6 c0 -20 -113 -61
-178 -65 -49 -2 -73 -9 -112 -33 -28 -17 -53 -31 -56 -31 -3 0 -25 -9 -50 -20
-45 -21 -57 -39 -26 -41 9 0 12 -3 5 -5 -7 -3 -22 0 -34 7 -18 9 -25 9 -34 -5
-13 -17 -35 -22 -35 -7 0 12 42 39 74 47 14 3 26 11 26 18 1 10 35 27 165 81
129 54 255 81 255 54z m481 -52 c-13 -13 -15 1 -4 30 7 17 8 17 11 -1 2 -10
-1 -23 -7 -29z m-95 8 c-3 -9 -11 -13 -16 -10 -8 5 -7 11 1 21 14 18 24 11 15
-11z m-1738 -26 c38 -19 62 -37 63 -47 7 -123 -53 -202 -154 -202 -41 0 -53 5
-81 33 -41 39 -56 68 -56 102 0 15 -4 24 -10 20 -5 -3 -11 -1 -11 4 -1 6 -2
17 -3 24 -3 15 32 68 53 82 49 31 110 26 199 -16z m119 35 c-3 -3 -12 -4 -19
-1 -8 3 -5 6 6 6 11 1 17 -2 13 -5z m1308 -19 c29 -9 59 -22 65 -30 16 -19 19
-48 7 -63 -5 -7 -7 -27 -4 -46 11 -67 -55 -125 -153 -133 -61 -5 -109 20 -134
71 -16 32 -17 48 -10 94 l9 56 64 33 c73 38 83 39 156 18z m-1325 1 c0 -2 -9
-6 -20 -9 -11 -3 -18 -1 -14 4 5 9 34 13 34 5z m-430 -11 c0 -10 -74 -104 -78
-100 -5 5 30 67 50 90 13 14 28 20 28 10z m535 -14 c-3 -6 -11 -11 -17 -11 -6
0 -6 6 2 15 14 17 26 13 15 -4z m-45 -11 c8 -5 11 -10 5 -10 -5 0 -17 5 -25
10 -8 5 -10 10 -5 10 6 0 17 -5 25 -10z m928 -16 c-16 -8 -28 -19 -28 -24 0
-6 -10 -10 -22 -9 -16 0 -18 2 -8 6 8 3 17 9 20 13 7 10 44 29 55 29 6 0 -2
-7 -17 -15z m472 2 c0 -2 -8 -10 -17 -17 -16 -13 -17 -12 -4 4 13 16 21 21 21
13z m-2333 -58 c-3 -8 -6 -5 -6 6 -1 11 2 17 5 13 3 -3 4 -12 1 -19z m1103 7
c11 -13 10 -14 -4 -9 -9 3 -16 10 -16 15 0 13 6 11 20 -6z m-850 -4 c0 -5 -6
-14 -14 -20 -12 -10 -13 -8 -9 8 5 21 23 30 23 12z m1520 -6 c0 -1 -8 -5 -18
-7 -11 -3 -19 0 -19 7 0 7 8 10 19 7 10 -2 18 -6 18 -7z m-599 -5 c18 -10 27
-40 12 -40 -10 1 -47 50 -38 50 4 0 15 -5 26 -10z m242 -22 c8 -13 15 -41 16
-63 3 -58 19 -121 42 -167 11 -22 22 -38 24 -36 2 1 -7 35 -21 73 -13 39 -24
81 -24 95 0 22 4 20 30 -20 16 -25 30 -49 30 -54 0 -5 11 -19 25 -32 24 -22
36 -62 15 -49 -6 4 -10 -10 -10 -34 0 -23 -14 -83 -31 -135 -33 -101 -37 -174
-6 -105 19 43 42 65 52 49 3 -5 23 -10 44 -10 42 0 67 -20 57 -46 -5 -13 -2
-15 14 -11 11 3 20 2 20 -1 -1 -10 -30 -47 -30 -39 0 11 -35 -9 -87 -49 -25
-19 -55 -34 -67 -34 -13 0 -35 -9 -49 -20 -34 -27 -67 -25 -135 9 -31 15 -68
31 -82 34 -14 4 -56 27 -94 51 -73 48 -193 93 -220 83 -9 -4 -16 -16 -16 -27
0 -23 -17 -25 -42 -6 -16 12 -8 24 90 125 59 61 115 111 125 111 49 0 102 -51
148 -142 23 -46 45 -78 54 -78 9 0 18 -7 21 -15 9 -22 27 -18 21 5 -3 10 0 21
6 23 5 1 -6 26 -25 55 -34 48 -78 157 -78 191 0 8 20 47 45 86 24 40 54 92 65
116 l20 44 -5 -58 c-3 -32 -17 -85 -30 -117 -27 -64 -30 -80 -16 -80 25 0 71
167 71 257 0 47 12 55 33 21z m-308 2 c3 -5 1 -10 -4 -10 -6 0 -11 5 -11 10 0
6 2 10 4 10 3 0 8 -4 11 -10z m40 0 c3 -6 -1 -7 -9 -4 -18 7 -21 14 -7 14 6 0
13 -4 16 -10z m517 -15 c0 -5 -5 -10 -12 -11 -7 -2 -6 -1 1 3 8 4 7 8 -2 15
-11 8 -11 9 -1 6 8 -2 14 -8 14 -13z m-515 -11 c-3 -3 -12 -4 -19 -1 -8 3 -5
6 6 6 11 1 17 -2 13 -5z m-967 -44 c-17 -22 -37 -40 -44 -40 -8 0 -25 -9 -40
-21 -14 -11 -26 -16 -26 -11 0 12 41 46 72 60 15 6 33 20 40 32 7 11 17 20 21
20 5 0 -6 -18 -23 -40z m994 15 c-8 -13 -12 -30 -8 -36 4 -8 3 -9 -5 -5 -6 4
-9 16 -6 27 4 12 2 19 -7 19 -17 0 12 20 30 20 9 0 8 -6 -4 -25z m464 -17 c6
-16 8 -28 3 -28 -4 0 -13 16 -19 37 -12 40 -3 34 16 -9z m996 15 c3 -16 10
-50 16 -76 5 -27 19 -61 30 -77 14 -20 18 -37 14 -60 l-7 -31 -17 38 c-9 21
-25 44 -34 52 -25 21 -57 88 -58 122 -2 55 45 81 56 32z m67 10 c13 -16 12
-17 -3 -4 -17 13 -22 21 -14 21 2 0 10 -8 17 -17z m-944 -20 c9 -16 33 -46 52
-67 26 -28 31 -37 16 -32 -11 4 -24 8 -30 9 -5 1 -18 12 -28 25 -19 22 -20 23
-41 5 l-21 -18 19 23 c18 20 18 23 3 40 -10 10 -17 24 -17 30 0 22 29 12 47
-15z m-630 -28 c-13 -28 -30 -34 -20 -7 5 14 21 31 30 32 0 0 -4 -11 -10 -25z
m1592 -54 c0 -14 -4 -35 -8 -46 -7 -18 -9 -18 -23 10 -8 17 -18 50 -21 74 l-5
43 29 -28 c18 -17 29 -37 28 -53z m-2408 42 c14 -16 30 -40 37 -55 6 -15 29
-39 52 -54 33 -22 48 -26 85 -22 28 4 45 2 45 -5 0 -6 10 -1 23 11 13 12 34
22 48 22 13 0 57 9 97 20 39 11 73 20 75 20 2 0 2 -13 -1 -29 -4 -31 -49 -60
-144 -96 -26 -10 -50 -26 -53 -36 -6 -18 -149 -79 -193 -82 -22 -2 -23 -5 -17
-47 4 -32 3 -41 -4 -30 -6 8 -11 29 -11 47 0 25 -5 32 -22 35 -18 2 -34 25
-72 102 l-49 99 19 35 18 34 8 -30 c5 -17 24 -44 44 -60 36 -30 114 -58 114
-41 0 5 -5 9 -10 9 -17 0 -54 42 -69 78 -7 17 -17 32 -22 32 -12 0 -11 -17 0
-25 6 -3 9 -14 8 -24 -1 -16 -5 -17 -19 -10 -22 12 -24 21 -3 13 17 -7 21 11
5 21 -5 3 -10 17 -10 31 0 18 -4 23 -12 18 -10 -6 -10 -5 -1 8 7 8 10 18 6 21
-11 12 -21 8 -26 -10 -4 -14 -5 -12 -6 5 -1 31 29 29 60 -5z m1409 7 c0 -5 -2
-10 -4 -10 -3 0 -8 5 -11 10 -3 6 -1 10 4 10 6 0 11 -4 11 -10z m-801 -15
c-17 -18 -83 -39 -73 -24 6 10 61 37 79 38 5 1 2 -6 -6 -14z m1559 3 c-4 -13
-114 -77 -132 -78 -5 0 19 20 55 45 66 47 83 54 77 33z m-1351 -24 c-3 -3 -12
-4 -19 -1 -8 3 -5 6 6 6 11 1 17 -2 13 -5z m633 -4 c0 -5 -7 -10 -16 -10 -8 0
-12 5 -9 10 3 6 10 10 16 10 5 0 9 -4 9 -10z m750 -8 c0 -21 -131 -69 -224
-83 -39 -5 -83 -16 -99 -24 -23 -11 -33 -12 -44 -3 -8 6 -10 15 -5 20 11 11
115 29 187 32 31 2 75 14 115 33 36 17 66 32 68 32 1 1 2 -3 2 -7z m-1662 -30
c2 -7 -7 -12 -23 -12 -24 0 -26 2 -15 15 14 17 31 16 38 -3z m1042 8 c0 -5 -4
-10 -10 -10 -5 0 -10 5 -10 10 0 6 5 10 10 10 6 0 10 -4 10 -10z m-1253 -12
c-21 -7 -32 -7 -40 1 -8 8 0 11 29 10 39 -1 39 -1 11 -11z m1158 -11 c-14 -8
-15 -11 -4 -19 11 -8 11 -9 -1 -5 -14 3 -21 23 -13 39 2 4 11 4 19 1 14 -5 14
-7 -1 -16z m-901 -21 c29 11 16 -10 -20 -33 -20 -13 -45 -23 -58 -23 -12 0
-37 -16 -56 -35 -19 -19 -40 -35 -48 -35 -8 0 14 27 49 59 35 32 66 55 67 50
2 -5 10 -9 17 -9 9 0 11 8 7 23 -5 19 -3 20 10 9 9 -7 23 -10 32 -6z m176 4
c0 -16 -105 -64 -124 -57 -20 8 -21 31 -2 49 16 16 126 23 126 8z m1070 0 c0
-5 -16 -10 -35 -10 -19 0 -35 5 -35 10 0 6 16 10 35 10 19 0 35 -4 35 -10z
m425 -13 c8 -13 27 -29 40 -35 24 -11 25 -11 15 9 -7 11 -9 23 -7 26 3 3 13
-9 22 -26 9 -17 11 -31 5 -31 -5 0 -10 -5 -10 -11 0 -20 -74 -110 -102 -125
-44 -23 -58 -10 -51 44 6 43 5 46 -10 34 -9 -8 -19 -22 -22 -33 -4 -10 -11
-19 -16 -19 -16 0 -10 23 13 47 12 13 16 23 9 23 -7 0 -25 -14 -41 -32 l-29
-32 -38 20 c-36 18 -82 61 -83 77 0 4 8 7 18 7 18 0 210 65 220 74 14 14 53 4
67 -17z m-1465 -16 c0 -9 -24 -21 -43 -21 -6 0 -2 7 9 15 22 17 34 19 34 6z
m790 -32 c0 -12 -5 -11 -44 5 -51 21 -51 35 -1 18 25 -8 45 -18 45 -23z m220
20 c0 -14 -17 -10 -23 5 -4 10 -1 13 9 9 7 -3 14 -9 14 -14z m-43 -6 c3 -7 -3
-9 -16 -6 -12 3 -21 10 -21 15 0 13 32 6 37 -9z m-121 -13 c9 0 12 5 8 12 -5
8 -2 9 12 4 10 -5 45 -17 78 -28 37 -13 60 -27 63 -39 6 -20 54 -40 91 -37 27
3 27 6 0 35 -28 30 -19 38 26 19 40 -17 43 -22 20 -47 -14 -16 -12 -18 28 -24
24 -4 64 -17 91 -30 35 -16 47 -19 47 -9 0 22 17 16 24 -8 10 -38 8 -52 -6
-40 -7 5 -57 28 -110 50 -88 36 -102 39 -144 31 -45 -9 -52 -7 -143 43 -94 50
-111 63 -110 83 0 6 3 4 6 -2 2 -7 11 -13 19 -13z m-906 1 c0 -14 -30 -42 -57
-52 -33 -12 -40 -11 -47 6 -4 12 6 21 37 35 48 21 67 24 67 11z m839 -57 c15
-15 14 -16 -10 -11 -38 9 -119 47 -119 56 0 4 3 10 6 13 8 8 103 -36 123 -58z
m-732 20 c-3 -3 -12 -4 -19 -1 -8 3 -5 6 6 6 11 1 17 -2 13 -5z m527 -5 c-3
-6 -1 -15 6 -19 9 -6 4 -13 -18 -24 -51 -26 -57 -16 -17 28 24 26 42 35 29 15z
m-1005 -16 c-32 -41 -69 -56 -69 -29 0 19 38 46 63 46 17 0 18 -2 6 -17z
m1175 -90 c57 -60 102 -111 99 -115 -8 -14 -41 -9 -47 7 -7 19 -47 19 -91 1
-33 -14 -36 -14 -50 7 -14 20 -65 90 -90 123 -6 9 -3 19 13 32 13 11 22 24 21
28 -3 19 2 24 21 24 13 0 59 -40 124 -107z m831 70 c-4 -21 -8 -43 -8 -50 0
-6 -6 -9 -12 -6 -13 4 -25 -26 -25 -67 0 -14 -9 -38 -21 -55 -11 -16 -25 -41
-30 -54 l-10 -24 -19 21 c-11 12 -17 28 -14 37 4 8 -2 27 -11 42 -14 21 -15
28 -5 31 21 7 92 76 125 121 17 22 32 41 34 41 2 0 0 -17 -4 -37z m-1805 16
c0 -26 -23 -48 -71 -68 -67 -29 -84 -16 -37 29 45 44 108 67 108 39z m1179
-123 c156 -82 241 -144 241 -175 0 -9 -7 -27 -16 -39 -18 -26 -8 -29 18 -5 17
15 18 15 18 -3 0 -15 -17 -24 -83 -43 -148 -43 -197 -39 -232 22 -10 18 -31
48 -46 68 l-28 36 29 28 c17 16 30 32 30 37 0 4 -36 42 -81 85 -44 42 -85 85
-90 94 -8 16 -4 16 38 -3 27 -11 117 -57 202 -102z m762 77 c-9 -16 -10 -16
-11 -1 0 9 3 25 7 35 7 16 8 17 11 1 2 -10 -1 -25 -7 -35z m-2125 5 c-22 -31
-20 -35 13 -43 16 -3 35 -13 42 -21 16 -19 -1 -19 -49 1 -69 29 -176 -9 -259
-91 -25 -25 -46 -44 -48 -42 -1 2 -6 14 -9 28 -5 17 -4 21 2 12 7 -11 23 -1
68 42 33 31 64 56 69 56 6 0 22 6 37 14 15 8 39 17 55 20 15 4 39 15 53 26 33
26 45 25 26 -2z m1319 -3 c22 -13 33 -24 25 -25 -16 0 -80 36 -80 45 0 10 16
4 55 -20z m-1736 -33 c7 -7 11 -15 9 -18 -7 -6 -58 36 -58 48 0 10 18 -1 49
-30z m1398 -22 c36 -45 38 -64 4 -29 -28 27 -36 30 -67 24 -24 -4 -34 -3 -29
4 3 6 13 11 21 11 8 0 14 5 14 10 0 20 36 8 57 -20z m1101 -7 c-11 -41 -35
-93 -43 -93 -15 0 -2 81 16 104 29 37 39 32 27 -11z m-1845 13 c-4 -8 -29 -33
-55 -56 l-47 -41 -16 30 c-15 29 -14 31 9 46 13 9 38 17 56 20 18 2 35 6 38 9
11 12 23 5 15 -8z m-673 -31 c19 -14 39 -25 46 -25 7 0 16 -10 20 -22 12 -37
13 -142 2 -155 -15 -18 -38 -16 -38 3 0 11 -6 14 -21 9 -19 -6 -20 -5 -8 8 8
8 17 13 21 11 4 -3 1 14 -8 38 -8 23 -15 52 -16 65 -2 13 -6 23 -10 23 -3 0
-10 9 -13 20 -7 22 -31 27 -38 8 -3 -7 -6 -4 -6 8 -2 41 21 44 69 9z m2071 -1
c47 -23 85 -62 104 -103 10 -23 24 -41 32 -41 7 0 13 -6 13 -12 0 -7 3 -29 6
-48 5 -33 2 -38 -55 -85 -57 -47 -78 -74 -48 -62 10 4 12 -3 9 -24 -5 -32 -22
-38 -43 -13 -7 8 -25 22 -41 30 l-29 15 31 25 c16 14 30 32 30 40 0 7 15 20
33 28 25 10 38 25 51 56 9 23 15 45 12 48 -3 2 -10 -6 -15 -19 -12 -32 -48
-69 -66 -69 -10 0 -15 11 -15 34 0 61 -37 98 -187 193 -17 10 -16 12 7 22 30
12 135 3 171 -15z m437 -66 c-21 -55 -46 -108 -52 -108 -6 0 -1 35 6 40 3 3
17 31 31 63 32 71 42 75 15 5z m-2148 24 c-14 -9 -47 -38 -74 -64 -40 -39 -47
-52 -42 -73 7 -29 -9 -33 -39 -12 -39 29 9 102 97 146 24 11 52 21 63 20 18 0
18 -2 -5 -17z m1874 -8 c9 -3 16 -12 16 -20 0 -17 -12 -18 -28 -2 -22 22 -16
33 12 22z m-1733 -48 c10 -25 23 -46 29 -48 5 -2 -8 -29 -30 -60 -21 -31 -48
-87 -60 -124 l-22 -66 -20 43 c-10 24 -22 46 -26 49 -4 3 -27 26 -51 52 -47
50 -48 66 -8 110 39 42 111 87 140 88 24 0 31 -7 48 -44z m199 8 c0 -8 -4 -12
-10 -9 -5 3 -10 10 -10 16 0 5 5 9 10 9 6 0 10 -7 10 -16z m794 0 c3 -8 2 -12
-4 -9 -6 3 -10 10 -10 16 0 14 7 11 14 -7z m-905 -8 c10 -12 8 -17 -7 -25 -17
-9 -18 -7 -14 14 5 29 6 29 21 11z m-681 -43 c-1 -40 -2 -42 -5 -14 l-5 34
-19 -29 -19 -29 0 32 c0 29 18 52 43 53 4 0 6 -21 5 -47z m39 25 c-3 -8 -6 -5
-6 6 -1 11 2 17 5 13 3 -3 4 -12 1 -19z m39 -34 c13 -10 13 -12 -1 -18 -9 -3
-13 -2 -10 4 3 6 1 10 -4 10 -6 0 -10 15 -10 33 1 27 2 28 6 7 2 -14 11 -30
19 -36z m2288 5 c-3 -5 -10 -7 -15 -3 -5 3 -7 10 -3 15 3 5 10 7 15 3 5 -3 7
-10 3 -15z m-2103 -59 c11 0 35 -11 52 -24 18 -13 44 -26 58 -29 14 -4 32 -19
40 -34 8 -16 21 -33 29 -40 12 -9 12 -14 3 -24 -9 -9 -14 -7 -23 12 -13 27
-85 84 -127 100 -15 5 -47 12 -72 15 -56 5 -60 9 -32 34 20 17 25 17 38 5 8
-8 23 -15 34 -15z m1435 11 c21 -11 48 -29 58 -40 11 -12 25 -21 32 -21 7 0
21 -10 31 -23 43 -54 126 -59 248 -14 38 14 71 24 73 22 7 -6 -90 -52 -149
-70 -79 -25 -115 -15 -191 49 -35 29 -84 63 -110 76 -27 13 -48 27 -48 32 0
12 12 10 56 -11z m-940 -40 c-10 -11 -15 -25 -11 -30 3 -6 0 -11 -8 -11 -17 0
-77 -89 -77 -113 0 -10 -5 -17 -11 -17 -7 0 -9 -11 -5 -27 3 -16 3 -22 -1 -14
-4 11 -7 11 -14 0 -4 -7 -3 -21 2 -31 6 -11 6 -18 0 -18 -5 0 -12 6 -14 13 -4
8 -6 7 -6 -3 -1 -9 5 -22 12 -30 10 -12 9 -12 -6 -1 -23 18 -33 8 -12 -12 8
-9 14 -28 14 -44 -2 -27 -2 -27 -6 -3 -6 30 -23 51 -23 28 0 -9 -7 -31 -15
-49 l-15 -34 6 40 c4 22 10 45 15 51 5 6 6 14 3 17 -4 3 5 26 20 51 28 47 32
61 16 51 -11 -7 11 48 41 101 29 51 79 104 98 104 11 0 11 -4 -3 -19z m-795
-52 c-8 -38 -9 -40 -10 -12 -1 17 2 39 5 48 11 29 14 10 5 -36z m2519 1 c-21
-39 -116 -126 -160 -148 -25 -12 -94 -33 -153 -47 -125 -29 -155 -43 -190 -84
-28 -34 -62 -124 -54 -145 3 -8 -2 -16 -12 -19 -14 -3 -17 1 -13 19 2 13 -1
30 -7 38 -9 11 -5 19 19 39 17 14 33 39 36 56 4 16 16 38 28 49 32 30 102 64
139 67 84 8 158 31 218 67 25 15 51 28 58 28 6 0 11 15 11 33 0 24 3 28 10 17
8 -13 15 -10 42 18 38 37 43 39 28 12z m-2387 -9 c-5 -3 -15 -15 -21 -26 -11
-19 -11 -18 -12 7 0 14 6 28 13 31 16 6 32 -4 20 -12z m2457 -25 c0 -28 -39
-61 -53 -47 -6 6 0 21 14 40 29 37 39 38 39 7z m-2374 -41 c-20 -31 -90 -76
-133 -85 -62 -14 -105 31 -53 57 13 7 30 20 37 29 11 15 13 12 13 -24 0 -27 4
-42 13 -42 18 0 88 49 111 78 24 30 34 20 12 -13z m169 5 c-3 -5 -11 -10 -16
-10 -6 0 -7 5 -4 10 3 6 11 10 16 10 6 0 7 -4 4 -10z m1804 -32 l35 -33 -45
-7 c-24 -4 -45 -12 -47 -18 -2 -5 -16 -10 -32 -10 -22 0 -30 6 -39 31 -14 40
-14 39 7 39 9 1 28 7 42 15 35 20 41 19 79 -17z m-264 -22 c6 -1 16 -5 23 -9
6 -5 12 -4 12 0 0 15 73 15 81 1 15 -24 11 -48 -8 -41 -12 5 -15 2 -11 -8 3
-8 -7 -24 -22 -36 l-27 -22 -28 50 c-16 27 -33 49 -37 49 -12 0 -11 -3 18 -54
21 -37 25 -54 19 -84 -7 -38 -24 -77 -30 -70 -3 2 -14 50 -26 105 -23 108 -21
140 9 128 9 -4 22 -8 27 -9z m-1485 -65 c0 -11 4 -22 8 -25 9 -6 1 -83 -17
-156 -6 -25 -14 -99 -17 -165 -6 -107 -9 -124 -31 -153 -32 -43 -68 -41 -100
6 -25 38 -21 62 11 62 l21 1 -22 12 -21 12 42 140 c60 197 126 337 126 266z
m1922 -60 c28 -32 38 -58 38 -93 l0 -33 -19 40 c-10 22 -28 50 -40 62 -11 12
-21 27 -21 33 0 17 24 11 42 -9z m-77 -54 c9 -29 20 -83 27 -122 16 -104 44
-138 82 -99 12 11 13 20 6 34 -8 15 -6 24 10 40 l20 20 11 -27 c19 -50 -6
-138 -54 -190 -28 -31 -43 -29 -62 7 -11 21 -23 30 -40 30 -14 0 -25 -4 -25
-9 0 -5 8 -8 17 -7 12 1 19 -7 21 -23 6 -39 -6 -67 -35 -80 -23 -10 -30 -9
-52 7 -40 30 -60 94 -60 197 -1 58 -8 116 -21 163 -11 39 -20 76 -20 80 0 16
128 45 152 34 4 -1 14 -26 23 -55z m-2113 46 c-10 -4 -9 -8 5 -19 20 -15 6
-19 -16 -5 -15 10 -7 31 12 30 8 0 8 -2 -1 -6z m2168 -39 c0 -8 5 -14 10 -14
6 0 10 -4 10 -8 0 -5 -7 -9 -15 -9 -8 0 -15 6 -15 13 0 7 -3 20 -7 30 -4 12
-3 15 5 10 7 -4 12 -14 12 -22z m-240 -131 c7 -51 17 -93 21 -93 5 0 9 -8 8
-17 0 -10 -3 -13 -5 -6 -3 7 -12 9 -20 6 -8 -3 -14 0 -14 5 0 6 -6 17 -14 24
-23 24 -46 76 -46 105 0 15 10 43 21 62 27 44 32 35 49 -86z m-1453 75 c-3 -7
-5 -2 -5 12 0 14 2 19 5 13 2 -7 2 -19 0 -25z m1700 -10 c-3 -8 -6 -5 -6 6 -1
11 2 17 5 13 3 -3 4 -12 1 -19z m-1744 -18 c3 -11 1 -20 -4 -20 -5 0 -9 9 -9
20 0 11 2 20 4 20 2 0 6 -9 9 -20z m-156 -52 c-3 -8 -6 -5 -6 6 -1 11 2 17 5
13 3 -3 4 -12 1 -19z m173 7 c0 -8 -4 -15 -10 -15 -5 0 -7 7 -4 15 4 8 8 15
10 15 2 0 4 -7 4 -15z m-390 -22 c0 -20 -3 -24 -11 -16 -7 7 -9 19 -6 27 10
24 17 19 17 -11z m1897 -50 c-3 -10 -5 -2 -5 17 0 19 2 27 5 18 2 -10 2 -26 0
-35z m-1657 -62 c-20 -108 -29 -115 -29 -23 -1 46 4 93 10 104 11 20 12 20 22
3 7 -12 6 -39 -3 -84z m1544 83 c5 -14 4 -15 -9 -4 -17 14 -19 20 -6 20 5 0
12 -7 15 -16z m-84 -20 c0 -16 -18 -18 -39 -5 -11 7 -10 11 5 19 21 12 34 7
34 -14z m446 -10 c-4 -12 -10 -14 -17 -7 -5 5 -7 17 -3 27 4 12 10 14 17 7 5
-5 7 -17 3 -27z m-1823 -27 c15 -23 15 -24 -9 -19 -15 3 -24 11 -24 23 0 26
15 24 33 -4z m1563 -79 c8 -16 10 -28 4 -28 -5 0 -10 4 -10 9 0 4 -16 29 -35
54 -19 25 -35 49 -35 54 1 11 57 -56 76 -89z m-96 -2 c0 -37 -17 -40 -24 -5
-10 53 -8 63 9 45 8 -8 15 -26 15 -40z m-1415 -4 c-8 -8 -25 10 -25 26 0 13 2
13 14 -4 8 -10 13 -21 11 -22z m1540 -175 c9 -23 31 -70 47 -105 28 -58 30
-66 19 -102 -12 -42 -43 -70 -76 -70 -18 1 -18 2 -4 13 37 29 42 55 21 125
-11 37 -23 83 -27 102 -4 19 -14 46 -22 60 l-14 25 5 -27 c4 -16 8 -40 11 -55
3 -16 -5 -5 -21 27 -15 32 -28 80 -31 115 l-5 60 40 -63 c21 -34 47 -81 57
-105z m-1905 133 c0 -5 -7 -10 -16 -10 -8 0 -12 5 -9 10 3 6 10 10 16 10 5 0
9 -4 9 -10z m240 -15 c0 -8 -4 -15 -10 -15 -5 0 -7 7 -4 15 4 8 8 15 10 15 2
0 4 -7 4 -15z m1678 -30 c-3 -3 -9 2 -12 12 -6 14 -5 15 5 6 7 -7 10 -15 7
-18z m-1698 -8 c0 -7 -6 -22 -14 -33 -11 -14 -18 -16 -26 -8 -9 9 -6 17 11 33
27 25 29 25 29 8z m190 -70 c6 -23 24 -86 41 -140 17 -55 28 -101 25 -104 -15
-15 -105 206 -112 277 l-5 55 20 -23 c11 -13 25 -43 31 -65z m1296 36 c12 -46
9 -139 -4 -155 -7 -9 -19 -40 -28 -69 -9 -30 -31 -81 -49 -114 -35 -63 -159
-204 -170 -193 -4 4 11 30 33 60 76 101 172 332 188 452 7 52 20 60 30 19z
m84 -25 c0 -15 -28 -9 -34 8 -11 30 -6 37 14 19 11 -10 20 -22 20 -27z m-1687
22 c20 -1 20 -2 5 -11 -12 -7 -24 -6 -38 1 -24 13 -27 25 -4 16 9 -3 25 -6 37
-6z m1947 -176 c-20 -96 -85 -199 -165 -264 -17 -14 -18 -13 -12 5 7 20 7 20
-8 1 -8 -11 -15 -24 -15 -29 0 -4 -11 -23 -25 -41 -28 -37 -44 -96 -26 -96 6
0 11 7 11 15 0 24 22 65 36 65 7 0 14 6 17 13 9 25 19 -3 24 -66 6 -64 -13
-127 -38 -127 -24 0 -52 24 -67 58 -15 34 -16 35 -20 14 -5 -32 17 -82 36 -82
8 0 13 -3 9 -6 -11 -12 -44 7 -55 32 -25 54 -5 142 54 235 31 50 25 63 -9 17
-62 -82 -93 -178 -78 -236 6 -20 7 -38 2 -40 -5 -1 -2 -19 5 -40 18 -50 17
-87 -2 -106 -32 -33 -72 -12 -52 27 5 10 5 17 -1 17 -11 0 -21 -24 -21 -50 0
-10 -6 -21 -12 -23 -7 -3 -3 -6 8 -6 33 -1 47 -26 40 -66 -4 -19 -13 -35 -20
-35 -22 0 -55 39 -61 72 -9 55 -27 202 -27 218 2 44 46 147 82 190 22 26 52
79 66 116 27 73 54 124 65 124 4 0 12 -13 17 -29 11 -30 56 -61 89 -61 32 0
84 40 99 76 12 29 13 52 4 136 -5 56 -9 102 -8 103 2 1 17 9 33 18 l30 15 3
-55 c2 -30 -2 -79 -8 -109z m-1829 94 c-5 -13 -21 -48 -35 -78 -14 -30 -26
-68 -26 -84 0 -33 25 -66 49 -66 11 0 12 -3 4 -11 -13 -13 -49 -6 -76 14 -25
17 -41 101 -26 130 12 24 99 114 111 116 4 0 4 -9 -1 -21z m1665 -108 c3 -14
9 -35 14 -47 11 -27 -9 -57 -36 -51 -13 2 -19 12 -19 31 1 19 -3 26 -13 22
-11 -4 -12 2 -5 28 4 17 7 52 6 77 l-2 45 25 -40 c13 -22 27 -51 30 -65z
m-1386 -178 c0 -21 54 -130 91 -184 35 -51 37 -59 23 -73 -8 -8 -17 -15 -20
-15 -7 0 -101 194 -137 285 -55 139 -56 162 -3 73 25 -42 46 -81 46 -86z m55
-41 c8 -16 40 -59 70 -95 30 -35 55 -67 55 -70 0 -18 -32 -2 -54 27 -29 39
-100 167 -92 167 3 0 12 -13 21 -29z m999 -100 c-36 -67 -47 -76 -75 -60 -23
12 -23 12 17 43 21 17 48 41 59 53 30 33 30 20 -1 -36z m-804 -16 c11 -13 10
-19 -3 -33 -9 -9 -46 -48 -81 -87 -36 -38 -68 -67 -71 -63 -4 4 0 14 9 23 9 9
16 20 16 24 0 3 14 15 30 24 17 10 30 24 30 31 0 8 12 21 26 31 19 12 25 23
21 41 -5 27 5 31 23 9z m667 -28 c10 -13 25 -26 34 -29 24 -9 72 -75 64 -88
-3 -5 0 -12 7 -15 8 -3 14 -15 15 -25 2 -27 -13 -16 -34 23 -25 49 -95 125
-120 132 -28 7 -31 25 -4 25 11 0 28 -10 38 -23z m-6 -103 l21 -34 -35 -39
c-19 -21 -37 -44 -39 -52 -4 -11 -9 -12 -27 -1 -11 6 -28 12 -38 12 -15 0 -15
-1 1 -13 28 -20 16 -52 -17 -50 -18 1 -25 -2 -21 -10 3 -7 -1 -4 -9 5 -8 10
-17 15 -20 11 -4 -3 -7 3 -7 15 0 29 -16 28 -27 -1 -8 -24 -8 -24 -38 -6 l-30
19 28 0 c26 0 67 30 67 50 0 13 -7 13 -55 -5 -52 -18 -187 -19 -248 0 -58 17
-140 61 -164 87 -12 14 -14 21 -5 30 9 9 23 5 59 -14 54 -29 149 -63 204 -73
44 -8 165 22 240 60 27 14 49 23 49 20 0 -4 -12 -22 -26 -41 -21 -27 -23 -34
-10 -34 22 0 53 32 70 74 18 43 46 39 77 -10z m-1021 -54 c36 -60 123 -80 167
-38 26 25 31 13 7 -20 -36 -52 -160 -4 -205 80 -19 35 6 17 31 -22z m370 -10
c25 -16 52 -30 60 -30 8 0 33 -11 55 -25 22 -13 49 -25 60 -25 18 0 18 -2 -5
-20 -32 -25 -40 -25 -40 -1 0 32 -17 33 -23 2 -8 -38 -40 -46 -73 -18 -27 24
-25 57 5 57 14 0 14 2 1 10 -19 12 -50 -15 -50 -45 0 -37 37 -75 73 -75 l32 0
0 -56 c0 -44 -4 -58 -19 -66 -24 -14 -66 8 -66 35 0 16 3 17 14 8 8 -7 17 -8
20 -3 3 6 -1 16 -10 23 -13 10 -20 10 -36 0 -16 -10 -24 -9 -44 4 -40 26 -50
59 -29 91 14 22 16 40 11 96 -7 80 -3 82 64 38z m-355 -95 c18 -37 14 -55 -14
-55 -28 0 -41 21 -41 67 0 40 2 43 20 33 10 -6 27 -26 35 -45z m995 -123 c-25
-61 -44 -88 -73 -104 -18 -9 -18 -8 -2 16 16 24 17 36 4 141 -1 11 4 34 11 51
l13 31 35 -39 35 -39 -23 -57z m-939 118 c15 -9 17 -15 9 -30 -16 -29 -35 -24
-37 10 -2 33 0 35 28 20z m1086 -42 c-3 -7 -5 -2 -5 12 0 14 2 19 5 13 2 -7 2
-19 0 -25z m-1017 8 c0 -8 -10 -18 -21 -21 -12 -4 -41 -28 -65 -54 -24 -25
-44 -40 -44 -34 0 15 106 123 120 123 6 0 10 -6 10 -14z m-100 -40 c0 -2 -8
-10 -17 -17 -16 -13 -17 -12 -4 4 13 16 21 21 21 13z m615 -21 c20 -2 39 -5
42 -8 2 -3 -6 -23 -18 -45 -23 -39 -23 -39 -40 -18 -18 23 -49 81 -49 92 0 3
6 1 14 -5 8 -7 31 -14 51 -16z m215 -19 c-1 -33 -24 -74 -34 -58 -3 6 -3 30 0
55 8 53 34 56 34 3z m50 18 c0 -8 -4 -12 -10 -9 -5 3 -10 13 -10 21 0 8 5 12
10 9 6 -3 10 -13 10 -21z m-141 -7 c8 -10 7 -17 -2 -26 -9 -9 -7 -13 8 -17 21
-5 48 -51 39 -65 -10 -18 -24 -8 -24 16 0 14 -4 25 -10 25 -5 0 -10 -16 -10
-35 0 -19 -4 -35 -9 -35 -5 0 -11 -9 -14 -21 -7 -27 -38 -22 -53 10 -7 13 -17
27 -24 31 -15 9 31 104 57 119 24 14 29 13 42 -2z m-174 -44 c53 -79 11 -167
-71 -147 -27 7 -30 42 -3 36 11 -3 12 -1 1 10 -10 10 -16 10 -32 0 -27 -16
-31 -16 -95 13 -32 14 -54 29 -50 35 4 6 16 5 35 -5 34 -18 74 -11 93 15 6 9
25 20 40 24 15 4 33 17 39 31 6 14 13 25 14 25 2 0 15 -17 29 -37z m-417 -18
c16 -14 70 -41 118 -61 49 -19 97 -40 106 -45 10 -5 24 -9 32 -9 7 0 25 -9 39
-20 14 -11 39 -20 56 -20 16 0 42 -5 56 -12 18 -8 31 -8 48 0 12 6 40 14 63
17 28 4 60 21 102 56 34 27 62 46 62 41 0 -17 -50 -60 -111 -96 -58 -34 -63
-36 -152 -34 -58 1 -100 6 -115 15 -12 7 -66 31 -120 52 -165 65 -232 101
-232 122 0 25 13 24 48 -6z m714 -7 c-7 -7 -12 -8 -12 -2 0 14 12 26 19 19 2
-3 -1 -11 -7 -17z m346 -37 c-13 -4 -48 29 -48 46 0 9 11 4 29 -14 16 -15 24
-30 19 -32z m-1173 9 c-3 -5 -11 -10 -16 -10 -6 0 -7 5 -4 10 3 6 11 10 16 10
6 0 7 -4 4 -10z m1065 3 c0 -5 -5 -15 -10 -23 -8 -12 -10 -11 -10 8 0 12 5 22
10 22 6 0 10 -3 10 -7z m-131 -59 c4 -3 -34 -60 -62 -91 -25 -28 -53 -29 -67
-4 -14 27 -14 26 27 71 32 36 40 40 67 34 17 -3 33 -8 35 -10z m-346 -37 c-3
-5 -10 -4 -15 1 -6 6 -7 16 -3 22 6 9 9 9 16 -1 4 -7 5 -17 2 -22z m407 -14
c0 -34 -1 -36 -16 -21 -13 12 -14 20 -5 37 16 30 21 26 21 -16z m-836 17 c28
-10 34 -31 13 -49 -15 -12 -38 7 -50 42 -7 19 1 21 37 7z m634 -97 c22 -18 63
-16 90 3 27 19 52 12 52 -13 -1 -21 -33 -63 -50 -63 -15 0 -9 -42 8 -48 8 -2
10 2 6 13 -5 13 -2 16 17 13 36 -5 39 -59 5 -93 -36 -36 -49 -33 -46 10 1 3
-5 11 -13 18 -7 7 -44 42 -83 79 l-70 66 29 6 c24 5 28 10 24 27 -3 11 -3 28
1 37 5 12 8 9 10 -13 2 -16 11 -36 20 -42z m-468 31 c0 -18 -18 -18 -36 0 -20
20 -18 24 11 18 14 -2 25 -11 25 -18z m-190 -4 c0 -5 -2 -10 -4 -10 -3 0 -8 5
-11 10 -3 6 -1 10 4 10 6 0 11 -4 11 -10z m425 -58 c33 -16 74 -33 90 -39 17
-6 39 -14 49 -18 40 -17 3 17 -39 36 -47 21 -73 56 -32 44 45 -14 102 -51 102
-67 0 -9 18 -30 40 -46 45 -32 72 -62 57 -62 -5 0 -16 7 -23 16 -22 27 -181
93 -286 120 -13 3 -38 44 -26 44 4 0 35 -13 68 -28z m-95 -36 c0 -14 -4 -28
-10 -31 -11 -7 -14 -45 -4 -45 4 0 13 8 20 18 13 16 13 16 14 0 0 -29 1 -32
13 -46 8 -11 5 -12 -19 -7 l-29 7 29 -24 c17 -15 26 -30 22 -36 -14 -22 -49
-12 -82 24 -45 47 -46 93 -5 135 36 35 51 37 51 5z m164 -81 c15 -14 24 -30
21 -36 -5 -7 -15 -3 -29 10 -12 12 -28 21 -34 21 -7 0 -12 7 -12 15 0 23 24
18 54 -10z m93 -25 c38 -23 35 -43 -8 -65 -60 -32 -83 19 -24 53 17 10 18 11
3 12 -10 0 -18 5 -18 10 0 15 11 12 47 -10z"/>
<path d="M2425 3761 c-15 -30 -13 -51 5 -51 4 0 13 14 19 32 16 45 -3 59 -24
19z"/>
<path d="M2504 3749 c29 -23 47 -19 26 6 -7 8 -22 15 -33 15 -18 0 -17 -2 7
-21z"/>
<path d="M1276 3685 c3 -7 12 -16 19 -19 9 -3 12 0 9 9 -3 7 -12 16 -19 19 -9
3 -12 0 -9 -9z"/>
<path d="M1714 3286 c-20 -20 -34 -44 -34 -59 0 -27 41 -77 64 -77 9 0 4 10
-15 29 -31 31 -42 64 -14 41 8 -7 15 -19 15 -26 0 -8 11 -20 25 -26 14 -6 25
-15 25 -20 0 -17 48 -7 74 17 44 41 33 97 -28 134 -47 29 -73 26 -112 -13z
m140 -99 c-4 -12 -44 -37 -59 -37 -2 0 8 18 23 40 20 31 28 37 34 26 4 -8 6
-21 2 -29z"/>
<path d="M3153 3300 c-60 -36 -69 -85 -24 -131 16 -16 40 -29 53 -29 20 1 19
3 -9 15 -18 8 -33 19 -33 26 0 8 4 8 15 -1 15 -12 61 -10 100 4 17 7 17 5 -4
-13 -13 -12 -18 -21 -12 -21 22 0 61 49 61 75 0 39 -18 65 -55 81 -45 18 -54
18 -92 -6z m12 -40 c-16 -16 -31 -27 -34 -24 -6 6 45 54 56 54 4 0 -6 -13 -22
-30z"/>
<path d="M2270 2750 c-9 -16 -8 -20 5 -20 8 0 15 9 15 20 0 11 -2 20 -5 20 -2
0 -9 -9 -15 -20z"/>
<path d="M3075 2931 c22 -26 55 -46 55 -34 0 4 -17 19 -38 32 -36 23 -37 23
-17 2z"/>
<path d="M3166 1258 c-30 -45 -55 -114 -62 -168 -9 -73 9 -55 24 23 7 32 23
81 37 109 27 53 28 77 1 36z"/>
</g>
</svg>
